<svg viewBox="0 0 17 14" fill="none" xmlns="http://www.w3.org/2000/svg">
  <path d="M15.3945 7.31445L12.3047 10.4043C10.7461 11.9355 8.25781 11.9355 6.72656 10.4043C5.27734 8.92774 5.19531 6.60352 6.53516 5.04492L6.67188 4.88086C6.91797 4.60742 7.32812 4.58008 7.60156 4.82617C7.875 5.07227 7.90234 5.48242 7.65625 5.75586L7.54688 5.89258C6.61719 6.93164 6.67188 8.49024 7.65625 9.47461C8.66797 10.4863 10.3359 10.4863 11.375 9.47461L14.4648 6.38477C15.4766 5.3457 15.4766 3.70508 14.4648 2.66602C13.4805 1.70899 11.9219 1.6543 10.8828 2.55664L10.7188 2.69336C10.4453 2.93945 10.0352 2.91211 9.78906 2.63867C9.54297 2.36524 9.57031 1.95508 9.84375 1.70899L10.0078 1.57227C11.5664 0.205079 13.918 0.28711 15.3945 1.73633C16.9258 3.26758 16.9258 5.75586 15.3945 7.31445ZM1.14844 6.68555L4.26562 3.5957C5.79688 2.06445 8.28516 2.06445 9.81641 3.5957C11.293 5.04492 11.375 7.39649 10.0078 8.95508L9.84375 9.11914C9.625 9.39258 9.1875 9.44727 8.91406 9.20117C8.64062 8.95508 8.61328 8.54492 8.85938 8.27149L9.02344 8.10742C9.92578 7.06836 9.87109 5.50977 8.88672 4.52539C7.875 3.48633 6.20703 3.48633 5.19531 4.52539L2.07812 7.61524C1.06641 8.6543 1.06641 10.2949 2.07812 11.334C3.0625 12.291 4.62109 12.3457 5.66016 11.4434L5.82422 11.3066C6.09766 11.0605 6.50781 11.0879 6.75391 11.3613C7 11.6348 6.97266 12.0449 6.69922 12.291L6.53516 12.4277C4.97656 13.7949 2.625 13.7129 1.14844 12.2637C-0.382812 10.7324 -0.382812 8.2168 1.14844 6.68555Z" fill="white"/>
</svg>
