<svg width="14" height="16" viewBox="0 0 14 16" fill="none" xmlns="http://www.w3.org/2000/svg">
<path d="M11.375 6.67725C11.375 7.93506 10.9648 9.11084 10.2812 10.0405L13.7266 13.5132C14.082 13.8413 14.082 14.4155 13.7266 14.7437C13.3984 15.0991 12.8242 15.0991 12.4961 14.7437L9.02344 11.271C8.09375 11.9819 6.91797 12.3647 5.6875 12.3647C2.54297 12.3647 0 9.82178 0 6.67725C0 3.56006 2.54297 0.989746 5.6875 0.989746C8.80469 0.989746 11.375 3.56006 11.375 6.67725ZM5.6875 10.6147C7.08203 10.6147 8.36719 9.87646 9.07812 8.646C9.78906 7.44287 9.78906 5.93896 9.07812 4.7085C8.36719 3.50537 7.08203 2.73975 5.6875 2.73975C4.26562 2.73975 2.98047 3.50537 2.26953 4.7085C1.55859 5.93896 1.55859 7.44287 2.26953 8.646C2.98047 9.87646 4.26562 10.6147 5.6875 10.6147Z" fill="white" fill-opacity="0.36"/>
</svg>
